<svg width="800.0000000000001" height="178" xmlns="http://www.w3.org/2000/svg">
 <g>
  <title>Layer 1</title>
  <g id="svg_1" stroke="null">
   <path id="svg_2" class="st3" d="m500.12503,98.34373c0,0 -2.59891,0.8663 -5.19783,1.73261c-3.46522,0.8663 -5.19783,1.73261 -6.06413,1.73261c-0.8663,0 -2.59891,0.8663 -5.19783,1.73261c-2.59891,0.8663 -4.33152,1.73261 -5.19783,1.73261c-0.8663,0.8663 -2.59891,0.8663 -5.19783,1.73261c-2.59891,0.8663 -3.46522,1.73261 -5.19783,2.59891c-0.8663,0.8663 -2.59891,1.73261 -4.33152,2.59891c-1.73261,0.8663 -2.59891,1.73261 -4.33152,3.46522c-4.33152,-3.46522 -7.79674,-6.06413 -8.66304,-8.66304c4.33152,-3.46522 9.52935,-7.79674 14.72717,-12.99457c2.59891,-2.59891 5.19783,-5.19783 6.93044,-7.79674c0.8663,-1.73261 1.73261,-4.33152 1.73261,-6.06413c0,-1.73261 -0.8663,-3.46522 -3.46522,-5.19783c-1.73261,-0.8663 -4.33152,-0.8663 -7.79674,-0.8663c-3.46522,0.8663 -6.93044,2.59891 -10.39565,5.19783c-6.06413,5.19783 -9.52935,12.12826 -10.39565,20.79131c-9.52935,5.19783 -15.59348,8.66304 -17.32609,10.39565c0,0 -0.8663,-2.59891 -2.59891,-5.19783c-1.73261,-3.46522 -2.59891,-6.06413 -2.59891,-7.79674c-0.8663,-1.73261 -0.8663,-3.46522 -0.8663,-5.19783c0,0 0,-0.8663 0.8663,-0.8663c0,0 0,-0.8663 0.8663,-1.73261c0,-0.8663 0,-0.8663 0,-1.73261l0,0l0,0c0.8663,-0.8663 0.8663,-1.73261 1.73261,-3.46522c2.59891,-4.33152 4.33152,-5.19783 4.33152,-3.46522c0,0 0,1.73261 -0.8663,3.46522c0,1.73261 0,2.59891 0,4.33152l0.8663,0c0.8663,0 0.8663,0 1.73261,0l0.8663,0c1.73261,-1.73261 3.46522,-3.46522 4.33152,-6.06413c0.8663,-2.59891 0,-5.19783 -0.8663,-7.79674c-1.73261,-1.73261 -4.33152,-2.59891 -7.79674,-2.59891c-3.46522,0 -6.06413,1.73261 -9.52935,4.33152c-3.46522,2.59891 -6.06413,6.93044 -7.79674,11.26196c-0.8663,2.59891 -0.8663,6.06413 0,10.39565c-0.8663,0.8663 -1.73261,1.73261 -1.73261,1.73261c-6.93044,6.93044 -10.39565,11.26196 -12.99457,12.99457c-0.8663,0.8663 -1.73261,1.73261 -2.59891,2.59891c-1.73261,0.8663 -2.59891,2.59891 -3.46522,2.59891c-0.8663,0.8663 -1.73261,0.8663 -2.59891,2.59891c-0.8663,0.8663 -1.73261,1.73261 -2.59891,2.59891c-4.33152,3.46522 -8.66304,6.06413 -12.12826,6.93044c-0.8663,0 -1.73261,0 -1.73261,0c-1.73261,-2.59891 -2.59891,-7.79674 -2.59891,-17.32609c1.73261,0 4.33152,-1.73261 6.93044,-4.33152c0,0 2.59891,-2.59891 6.06413,-6.93044c6.06413,-6.93044 9.52935,-14.72717 10.39565,-22.52391c0.8663,-5.19783 0,-8.66304 -3.46522,-10.39565c-3.46522,-1.73261 -7.79674,-2.59891 -12.99457,-0.8663c-3.46522,0.8663 -7.79674,4.33152 -12.12826,9.52935c-4.33152,5.19783 -6.93044,12.99457 -7.79674,21.65761c0,2.59891 -0.8663,4.33152 -0.8663,6.93044c-0.8663,1.73261 -2.59891,2.59891 -3.46522,4.33152c-5.19783,6.93044 -9.52935,12.12826 -12.12826,15.59348c-4.33152,6.06413 -8.66304,11.26196 -12.99457,15.59348l0,0c0,0 0,0 -0.8663,0c0,-2.59891 0.8663,-7.79674 2.59891,-15.59348c0,-1.73261 0.8663,-4.33152 1.73261,-7.79674c0.8663,-3.46522 1.73261,-6.93044 1.73261,-8.66304c0.8663,-6.93044 1.73261,-11.26196 1.73261,-14.72717c0.8663,-6.06413 0,-10.39565 -1.73261,-12.12826c-1.73261,-1.73261 -3.46522,-0.8663 -5.19783,0.8663c-6.93044,5.19783 -13.86087,12.99457 -21.65761,21.65761c-6.06413,6.93044 -13.86087,16.45978 -22.52391,28.58804c0.8663,-2.59891 2.59891,-8.66304 5.19783,-16.45978c2.59891,-10.39565 5.19783,-17.32609 6.93044,-21.65761c1.73261,-3.46522 2.59891,-6.93044 3.46522,-10.39565c0.8663,-2.59891 1.73261,-5.19783 2.59891,-6.93044c1.73261,-3.46522 2.59891,-6.93044 2.59891,-8.66304c0,0 0,0 0,0c0,0 -0.8663,0 -0.8663,0c0,0 -0.8663,0 -0.8663,-0.8663c-0.8663,0 -0.8663,0 -1.73261,-0.8663c-0.8663,0 -0.8663,0 -1.73261,0c-0.8663,0 -0.8663,0 -1.73261,0c-0.8663,0 -0.8663,0 -1.73261,0c0,0 -0.8663,0 -0.8663,0c0,0 0,0 0,0c-1.73261,1.73261 -3.46522,3.46522 -5.19783,7.79674c-5.19783,10.39565 -7.79674,16.45978 -8.66304,18.19239c0,0.8663 -0.8663,1.73261 -0.8663,3.46522c-0.8663,0.8663 -2.59891,1.73261 -3.46522,3.46522c-1.73261,2.59891 -5.19783,6.06413 -8.66304,10.39565c-3.46522,4.33152 -6.06413,7.79674 -6.93044,8.66304c-1.73261,1.73261 -2.59891,3.46522 -4.33152,5.19783c-1.73261,1.73261 -3.46522,3.46522 -5.19783,5.19783c-1.73261,1.73261 -3.46522,3.46522 -4.33152,4.33152c-3.46522,3.46522 -6.06413,6.06413 -7.79674,6.93044c0,-1.73261 0,-4.33152 0,-8.66304c0,-2.59891 0.8663,-4.33152 0.8663,-6.93044c0.8663,-2.59891 0.8663,-4.33152 1.73261,-6.06413c0.8663,-1.73261 0.8663,-4.33152 1.73261,-6.93044s1.73261,-5.19783 1.73261,-6.06413c0,-0.8663 0.8663,-1.73261 0.8663,-3.46522c0,-1.73261 0.8663,-2.59891 0.8663,-3.46522c0,-0.8663 0.8663,-1.73261 0.8663,-3.46522c0,-0.8663 0.8663,-2.59891 1.73261,-5.19783c0.8663,-1.73261 1.73261,-3.46522 1.73261,-4.33152c1.73261,-5.19783 1.73261,-8.66304 0.8663,-11.26196c0,-0.8663 -2.59891,-0.8663 -6.06413,0c-4.33152,0.8663 -6.06413,0.8663 -6.06413,0.8663c-0.8663,0.8663 -1.73261,3.46522 -3.46522,8.66304c0,0.8663 -0.8663,2.59891 -1.73261,4.33152c-0.8663,1.73261 -0.8663,2.59891 -1.73261,3.46522c-0.8663,0 -0.8663,0 -1.73261,0.8663c-10.39565,3.46522 -20.79131,8.66304 -32.05326,16.45978c-0.8663,-0.8663 -1.73261,-1.73261 -2.59891,-3.46522c-1.73261,-1.73261 -2.59891,-2.59891 -3.46522,-4.33152c-0.8663,-1.73261 -1.73261,-2.59891 -1.73261,-4.33152l0,-0.8663c-0.8663,-6.06413 0,-10.39565 2.59891,-12.99457c1.73261,-1.73261 4.33152,-1.73261 5.19783,1.73261c0,0 0.8663,0 0.8663,0c0.8663,0 1.73261,0 2.59891,0c0.8663,0 0.8663,0 0.8663,0c1.73261,-2.59891 1.73261,-5.19783 0.8663,-7.79674c-1.73261,-3.46522 -6.06413,-4.33152 -12.99457,-3.46522c-0.8663,0 -0.8663,0 -1.73261,0s-0.8663,0 -1.73261,0.8663c-0.8663,0 -0.8663,0 -0.8663,0.8663c0,0 -0.8663,0 -0.8663,0.8663c-0.8663,0 -0.8663,0.8663 -0.8663,0.8663c0,0 -0.8663,0.8663 -0.8663,0.8663c-0.8663,0 -0.8663,0.8663 -0.8663,0.8663c0,0 -0.8663,0.8663 -0.8663,0.8663c-0.8663,0.8663 -0.8663,0.8663 -0.8663,0.8663c-3.46522,4.33152 -5.19783,8.66304 -4.33152,13.86087c-1.73261,1.73261 -3.46522,3.46522 -6.06413,5.19783c-12.12826,12.12826 -19.925,19.925 -23.39022,22.52391c-2.59891,2.59891 -5.19783,3.46522 -6.93044,4.33152c-0.8663,0 -0.8663,0 -0.8663,0c-0.8663,-2.59891 -0.8663,-7.79674 0,-14.72717c0.8663,-9.52935 1.73261,-15.59348 1.73261,-18.19239c0.8663,-1.73261 0.8663,-3.46522 0.8663,-6.06413c0,-2.59891 -0.8663,-3.46522 -3.46522,-4.33152c-1.73261,0 -2.59891,1.73261 -3.46522,2.59891c-0.8663,0.8663 -1.73261,2.59891 -2.59891,3.46522c-0.8663,0.8663 -1.73261,2.59891 -3.46522,3.46522c-0.8663,1.73261 -1.73261,2.59891 -2.59891,3.46522c-1.73261,1.73261 -4.33152,5.19783 -6.93044,8.66304c-3.46522,3.46522 -6.06413,6.93044 -8.66304,10.39565c-2.59891,3.46522 -5.19783,6.06413 -7.79674,8.66304l-6.06413,11.26196c0,-4.33152 0.8663,-8.66304 1.73261,-12.99457c0.8663,-4.33152 2.59891,-9.52935 5.19783,-15.59348c2.59891,-6.06413 3.46522,-9.52935 4.33152,-11.26196c1.73261,-6.93044 1.73261,-11.26196 0.8663,-14.72717c0,0 -0.8663,0 -3.46522,0c-1.73261,0 -4.33152,0.8663 -6.06413,1.73261c-1.73261,0.8663 -2.59891,0.8663 -2.59891,0.8663c-0.8663,0.8663 -0.8663,1.73261 -1.73261,2.59891c-0.8663,0.8663 -0.8663,2.59891 -1.73261,4.33152c-0.8663,1.73261 -0.8663,2.59891 -1.73261,3.46522c-0.8663,1.73261 -1.73261,3.46522 -1.73261,5.19783c-4.33152,0 -8.66304,1.73261 -13.86087,3.46522c0.8663,-2.59891 0.8663,-5.19783 0.8663,-7.79674c0,-7.79674 -2.59891,-12.99457 -7.79674,-13.86087c-0.8663,0 -1.73261,-0.8663 -3.46522,-0.8663c-2.59891,0 -6.93044,0.8663 -11.26196,3.46522c-9.52935,5.19783 -18.19239,13.86087 -25.98913,24.25652c2.59891,-9.52935 6.06413,-21.65761 10.39565,-38.9837c4.33152,-16.45978 7.79674,-28.58804 9.52935,-34.65218c1.73261,-6.93044 3.46522,-11.26196 4.33152,-14.72717c1.73261,-5.19783 2.59891,-9.52935 2.59891,-10.39565c0,-0.8663 0,-1.73261 0,-2.59891c0,0 -0.8663,0 -1.73261,-0.8663c-0.8663,0 -2.59891,-0.8663 -3.46522,-0.8663c-1.73261,0 -2.59891,0 -3.46522,0c-0.8663,0 -0.8663,0 -0.8663,0c-2.59891,2.59891 -4.33152,6.06413 -6.93044,12.12826c-5.19783,11.26196 -10.39565,28.58804 -17.32609,51.97826c-7.79674,25.12283 -12.99457,47.64674 -14.72717,66.70544c-0.8663,4.33152 -0.8663,8.66304 -0.8663,12.12826c0,3.46522 0,6.06413 0.8663,8.66304c0.8663,2.59891 2.59891,4.33152 5.19783,4.33152l0.8663,0c2.59891,0 4.33152,-1.73261 5.19783,-5.19783l4.33152,-10.39565c3.46522,-9.52935 8.66304,-19.0587 15.59348,-29.45435c3.46522,-5.19783 6.06413,-9.52935 7.79674,-12.12826c6.06413,-6.93044 12.12826,-11.26196 18.19239,-14.72717l2.59891,-0.8663c0,0 0,0 0,0.8663c0,0 0,0.8663 0,1.73261s0,3.46522 -0.8663,7.79674c0,2.59891 -0.8663,5.19783 -1.73261,7.79674c-7.79674,3.46522 -14.72717,6.93044 -19.925,10.39565c-5.19783,3.46522 -9.52935,8.66304 -12.12826,13.86087c-2.59891,4.33152 -3.46522,8.66304 -3.46522,12.99457c0,2.59891 0,4.33152 0.8663,6.93044c0.8663,2.59891 2.59891,4.33152 5.19783,6.06413c1.73261,0.8663 2.59891,0.8663 4.33152,0.8663c3.46522,0 7.79674,-2.59891 12.12826,-6.93044c9.52935,-10.39565 16.45978,-22.52391 21.65761,-38.11739c5.19783,-2.59891 10.39565,-4.33152 13.86087,-6.06413c-2.59891,9.52935 -4.33152,19.925 -3.46522,29.45435c0,3.46522 0.8663,6.06413 2.59891,8.66304c2.59891,3.46522 6.93044,4.33152 12.12826,2.59891c4.33152,-1.73261 9.52935,-6.06413 15.59348,-12.99457c5.19783,-6.06413 11.26196,-15.59348 19.0587,-28.58804c-0.8663,3.46522 -0.8663,6.93044 -0.8663,9.52935c0,2.59891 0,6.06413 0,10.39565c0,3.46522 0.8663,6.93044 2.59891,8.66304c1.73261,1.73261 4.33152,3.46522 6.93044,3.46522c2.59891,0 5.19783,-1.73261 9.52935,-4.33152c3.46522,-2.59891 7.79674,-6.06413 12.99457,-10.39565c6.06413,-5.19783 11.26196,-10.39565 14.72717,-15.59348c0,0 0.8663,-0.8663 0.8663,-0.8663c0.8663,1.73261 0.8663,2.59891 1.73261,4.33152c0.8663,1.73261 2.59891,3.46522 3.46522,6.06413c1.73261,1.73261 2.59891,3.46522 3.46522,4.33152c-6.93044,6.93044 -11.26196,12.12826 -13.86087,16.45978c-5.19783,9.52935 -6.06413,18.19239 -3.46522,25.12283c1.73261,3.46522 3.46522,6.06413 6.06413,7.79674c6.93044,2.59891 12.99457,0.8663 19.925,-7.79674c5.19783,-6.93044 8.66304,-13.86087 10.39565,-21.65761c0.8663,-6.06413 0,-12.99457 -1.73261,-19.0587c4.33152,-3.46522 9.52935,-7.79674 15.59348,-12.12826c3.46522,-2.59891 6.93044,-4.33152 9.52935,-6.93044c-0.8663,4.33152 -2.59891,8.66304 -3.46522,13.86087c-2.59891,12.12826 -3.46522,20.79131 -1.73261,26.85544c0.8663,2.59891 2.59891,5.19783 4.33152,6.93044c1.73261,1.73261 4.33152,2.59891 6.93044,3.46522c1.73261,0 4.33152,-0.8663 7.79674,-2.59891c2.59891,-1.73261 5.19783,-3.46522 7.79674,-6.06413c1.73261,-1.73261 5.19783,-5.19783 9.52935,-11.26196c4.33152,-5.19783 7.79674,-10.39565 12.12826,-15.59348c-0.8663,3.46522 -1.73261,6.93044 -2.59891,9.52935c0,0.8663 -0.8663,2.59891 -1.73261,6.06413c-0.8663,2.59891 -0.8663,5.19783 -1.73261,6.93044c0,1.73261 -0.8663,3.46522 -0.8663,6.06413c0,2.59891 -0.8663,5.19783 -0.8663,6.93044c0,5.19783 1.73261,8.66304 4.33152,9.52935c0,0 0.8663,0 2.59891,0.8663c1.73261,0 2.59891,-0.8663 3.46522,-1.73261c0.8663,-0.8663 1.73261,-1.73261 2.59891,-2.59891s1.73261,-1.73261 2.59891,-3.46522c1.73261,-2.59891 3.46522,-4.33152 5.19783,-6.93044c1.73261,-2.59891 3.46522,-6.06413 6.06413,-9.52935c2.59891,-4.33152 3.46522,-6.93044 4.33152,-7.79674c8.66304,-13.86087 17.32609,-26.85544 26.85544,-37.25109c0.8663,-0.8663 0.8663,-1.73261 1.73261,-1.73261c0.8663,-0.8663 0.8663,-1.73261 1.73261,-1.73261c-6.06413,17.32609 -9.52935,32.05326 -11.26196,44.18152c-0.8663,7.79674 0,13.86087 1.73261,17.32609c1.73261,2.59891 4.33152,3.46522 6.93044,3.46522c1.73261,0 4.33152,-0.8663 6.93044,-3.46522c5.19783,-4.33152 11.26196,-11.26196 18.19239,-21.65761c1.73261,-3.46522 4.33152,-6.93044 6.93044,-11.26196c0,2.59891 0.8663,5.19783 0.8663,7.79674c1.73261,7.79674 5.19783,12.99457 11.26196,15.59348c5.19783,1.73261 11.26196,0 17.32609,-5.19783c3.46522,-2.59891 8.66304,-7.79674 13.86087,-12.99457c2.59891,-2.59891 7.79674,-9.52935 13.86087,-19.0587c0.8663,2.59891 1.73261,4.33152 3.46522,7.79674c0.8663,1.73261 0.8663,2.59891 1.73261,4.33152c-4.33152,3.46522 -8.66304,6.93044 -11.26196,9.52935c-5.19783,5.19783 -7.79674,9.52935 -9.52935,13.86087c-1.73261,4.33152 -1.73261,8.66304 -0.8663,11.26196c1.73261,3.46522 3.46522,5.19783 6.93044,6.93044c3.46522,0.8663 6.06413,0 9.52935,-0.8663c4.33152,-1.73261 8.66304,-5.19783 12.12826,-8.66304c3.46522,-4.33152 5.19783,-8.66304 6.93044,-13.86087c0.8663,-5.19783 1.73261,-9.52935 0.8663,-13.86087c1.73261,-1.73261 4.33152,-3.46522 8.66304,-6.06413c3.46522,-2.59891 6.93044,-4.33152 8.66304,-6.06413c0.8663,0.8663 0.8663,1.73261 1.73261,2.59891c0.8663,0.8663 1.73261,1.73261 1.73261,2.59891c0.8663,0.8663 1.73261,1.73261 2.59891,2.59891c0.8663,0.8663 1.73261,1.73261 2.59891,1.73261c-6.93044,7.79674 -11.26196,16.45978 -12.99457,23.39022c-0.8663,6.93044 0.8663,11.26196 5.19783,13.86087c6.06413,3.46522 11.26196,0.8663 17.32609,-5.19783c1.73261,-2.59891 3.46522,-6.06413 5.19783,-9.52935c1.73261,-3.46522 1.73261,-6.93044 1.73261,-11.26196c0,-4.33152 -0.8663,-7.79674 -3.46522,-10.39565c2.59891,-2.59891 6.06413,-5.19783 10.39565,-7.79674c4.33152,-2.59891 8.66304,-5.19783 13.86087,-7.79674c5.19783,-2.59891 8.66304,-4.33152 10.39565,-5.19783c0,0 0,-0.8663 0,-1.73261c-2.59891,-0.8663 -2.59891,-0.8663 -3.46522,-0.8663l0,0l0.00002,0.00004zm-457.40872,41.58261c-3.46522,5.19783 -6.06413,8.66304 -7.79674,9.52935c0,0 -0.8663,0 -0.8663,0.8663c0,0 -0.8663,0.8663 -0.8663,0.8663c-0.8663,0 -1.73261,-1.73261 -1.73261,-3.46522c0,-0.8663 0,-2.59891 0.8663,-4.33152c0.8663,-5.19783 3.46522,-10.39565 8.66304,-15.59348c2.59891,-2.59891 5.19783,-4.33152 6.93044,-5.19783c0.8663,-0.8663 3.46522,-1.73261 6.93044,-3.46522c-2.59891,5.19783 -6.06413,12.12826 -12.12826,20.79131l0,0l-0.00001,0.00001zm140.34131,10.39565c-1.73261,2.59891 -3.46522,6.06413 -6.93044,9.52935c0,0 -0.8663,-0.8663 -0.8663,-0.8663c-0.8663,-1.73261 -0.8663,-3.46522 0,-6.06413c1.73261,-5.19783 5.19783,-11.26196 11.26196,-17.32609c0.8663,4.33152 -0.8663,9.52935 -3.46522,14.72717zm194.91849,-72.76957c1.73261,-1.73261 3.46522,-1.73261 4.33152,-1.73261c0.8663,0 0.8663,0.8663 0.8663,0.8663c0,0.8663 0,0.8663 0.8663,1.73261c0,0.8663 0,1.73261 0,1.73261c0,0.8663 0,1.73261 -0.8663,2.59891c0,0.8663 -0.8663,1.73261 -0.8663,1.73261c0,0.8663 0,0.8663 -0.8663,1.73261c0,0.8663 -0.8663,0.8663 -0.8663,0.8663c-0.8663,1.73261 -1.73261,3.46522 -2.59891,5.19783s-1.73261,3.46522 -3.46522,5.19783c-1.73261,2.59891 -2.59891,3.46522 -2.59891,4.33152c-1.73261,2.59891 -2.59891,4.33152 -3.46522,5.19783c-0.8663,0.8663 -0.8663,0.8663 -2.59891,1.73261c-0.8663,0.8663 -1.73261,1.73261 -2.59891,1.73261c3.46522,-15.59348 6.93044,-26.85544 14.72717,-32.91957l0,0l-0.00001,0zm24.25652,71.90326c1.73261,-4.33152 5.19783,-8.66304 11.26196,-14.72717c-2.59891,7.79674 -6.06413,12.12826 -11.26196,14.72717zm48.51305,-52.84457c0.8663,-3.46522 2.59891,-6.06413 6.06413,-8.66304c2.59891,-2.59891 5.19783,-4.33152 7.79674,-6.06413c1.73261,-0.8663 3.46522,-0.8663 4.33152,-1.73261l0.8663,0c0,0 0,0 0,0.8663c-0.8663,2.59891 -2.59891,5.19783 -6.06413,7.79674c-4.33152,1.73261 -7.79674,4.33152 -12.99457,7.79674l0,0l0.00001,0zm4.33152,45.04783c-0.8663,1.73261 -2.59891,4.33152 -5.19783,7.79674c-0.8663,-0.8663 -0.8663,-2.59891 0,-4.33152c1.73261,-5.19783 4.33152,-9.52935 8.66304,-14.72717c-0.8663,3.46522 -1.73261,6.93044 -3.46522,11.26196l0,0l0.00001,-0.00001z" fill="#0B487D" stroke="null"/>
   <path id="svg_3" class="st3" d="m797.26743,99.21004l0,0c-0.8663,-0.8663 -1.73261,-0.8663 -1.73261,-0.8663c0,0 -0.8663,0 -1.73261,0c-4.33152,0 -9.52935,1.73261 -16.45978,4.33152c0.8663,-2.59891 0.8663,-5.19783 0.8663,-7.79674c0,-7.79674 -2.59891,-12.99457 -7.79674,-13.86087c-0.8663,0 -1.73261,-0.8663 -3.46522,-0.8663c-2.59891,0 -6.93044,0.8663 -11.26196,3.46522c-9.52935,5.19783 -18.19239,13.86087 -25.98913,24.25652c2.59891,-9.52935 6.06413,-21.65761 10.39565,-38.9837c4.33152,-16.45978 7.79674,-28.58804 9.52935,-34.65218c1.73261,-6.93044 3.46522,-11.26196 4.33152,-14.72717c1.73261,-5.19783 2.59891,-9.52935 2.59891,-10.39565c0,-0.8663 0,-1.73261 0,-2.59891c0,0 -0.8663,0 -1.73261,-0.8663c-0.8663,0 -2.59891,-0.8663 -3.46522,-0.8663c-1.73261,0 -2.59891,0 -3.46522,0c-0.8663,0 -0.8663,0 -0.8663,0c-2.59891,2.59891 -4.33152,6.06413 -6.93044,12.12826c-5.19783,11.26196 -10.39565,28.58804 -17.32609,51.97826c-3.46522,11.26196 -6.06413,20.79131 -8.66304,31.18696c-0.8663,0.8663 -2.59891,2.59891 -3.46522,3.46522c-12.12826,12.12826 -19.925,19.925 -23.39022,22.52391c-2.59891,2.59891 -5.19783,3.46522 -6.93044,4.33152c-0.8663,0 -0.8663,0 -0.8663,0c-0.8663,-2.59891 -0.8663,-7.79674 0,-14.72717c0.8663,-9.52935 1.73261,-15.59348 1.73261,-18.19239c0.8663,-1.73261 0.8663,-3.46522 0.8663,-6.06413c0,-2.59891 -0.8663,-3.46522 -3.46522,-4.33152c-1.73261,0 -2.59891,1.73261 -3.46522,2.59891c-0.8663,0.8663 -1.73261,2.59891 -2.59891,3.46522c-0.8663,0.8663 -1.73261,2.59891 -3.46522,3.46522c-0.8663,1.73261 -1.73261,2.59891 -2.59891,3.46522c-1.73261,1.73261 -4.33152,5.19783 -6.93044,8.66304c-3.46522,3.46522 -6.06413,6.93044 -8.66304,10.39565c-2.59891,3.46522 -5.19783,6.06413 -7.79674,8.66304l-6.93044,6.06413c0,-4.33152 0.8663,-8.66304 1.73261,-12.99457c0.8663,-4.33152 2.59891,-9.52935 5.19783,-15.59348c2.59891,-6.06413 3.46522,-9.52935 4.33152,-11.26196c1.73261,-6.93044 1.73261,-11.26196 0.8663,-14.72717c0,0 -0.8663,0 -3.46522,0c-1.73261,0 -4.33152,0.8663 -6.06413,1.73261c-1.73261,0.8663 -2.59891,0.8663 -2.59891,0.8663c-0.8663,0.8663 -0.8663,1.73261 -1.73261,2.59891c-0.8663,0.8663 -0.8663,2.59891 -1.73261,4.33152c-0.8663,1.73261 -0.8663,2.59891 -1.73261,3.46522c-2.59891,5.19783 -4.33152,11.26196 -6.06413,16.45978c-1.73261,1.73261 -3.46522,3.46522 -4.33152,4.33152c-1.73261,1.73261 -4.33152,4.33152 -7.79674,7.79674c-3.46522,3.46522 -6.06413,6.06413 -7.79674,7.79674c-6.06413,6.06413 -9.52935,9.52935 -10.39565,10.39565c-2.59891,2.59891 -4.33152,3.46522 -6.06413,4.33152c-0.8663,0 -1.73261,0.8663 -1.73261,0.8663c0,0 -0.8663,-1.73261 -0.8663,-4.33152c0,-4.33152 0.8663,-11.26196 1.73261,-19.925c0.8663,-2.59891 1.73261,-7.79674 2.59891,-12.99457c1.73261,-6.06413 2.59891,-10.39565 2.59891,-12.99457c0.8663,-6.06413 0,-9.52935 -1.73261,-10.39565c-2.59891,-0.8663 -6.06413,0 -10.39565,3.46522c-6.06413,5.19783 -12.12826,11.26196 -18.19239,18.19239c-4.33152,5.19783 -8.66304,10.39565 -12.12826,16.45978c1.73261,-4.33152 3.46522,-9.52935 6.06413,-16.45978c2.59891,-6.93044 4.33152,-12.12826 5.19783,-14.72717c1.73261,-5.19783 3.46522,-11.26196 6.06413,-18.19239c2.59891,-6.93044 4.33152,-12.99457 6.06413,-18.19239c1.73261,-5.19783 4.33152,-11.26196 6.93044,-17.32609c2.59891,-6.93044 5.19783,-12.99457 7.79674,-19.0587c2.59891,-6.93044 3.46522,-12.12826 3.46522,-14.72717c0,0 -0.8663,-0.8663 -3.46522,-0.8663c-2.59891,0 -3.46522,-0.8663 -3.46522,0c-1.73261,1.73261 -5.19783,6.06413 -8.66304,12.99457c-6.93044,11.26196 -12.99457,24.25652 -19.0587,38.9837c-1.73261,3.46522 -2.59891,6.93044 -5.19783,11.26196c-1.73261,4.33152 -3.46522,7.79674 -4.33152,10.39565c-0.8663,2.59891 -2.59891,6.93044 -4.33152,12.12826c-6.06413,19.0587 -10.39565,37.25109 -13.86087,54.57718c0,0 0,1.73261 -0.8663,3.46522c-0.8663,2.59891 -0.8663,3.46522 -0.8663,4.33152c0,0.8663 0,1.73261 0,3.46522c0,1.73261 0,3.46522 0,4.33152c0,1.73261 0,2.59891 0.8663,3.46522c0,1.73261 1.73261,3.46522 3.46522,4.33152c1.73261,0.8663 3.46522,0.8663 5.19783,0c0,0 0.8663,-0.8663 1.73261,-1.73261c0.8663,-0.8663 0.8663,-0.8663 0.8663,-0.8663c3.46522,-5.19783 7.79674,-12.12826 12.99457,-21.65761c5.19783,-9.52935 8.66304,-15.59348 10.39565,-18.19239c4.33152,-6.93044 10.39565,-14.72717 18.19239,-24.25652c1.73261,-2.59891 3.46522,-4.33152 5.19783,-6.06413c-4.33152,12.99457 -6.93044,25.12283 -7.79674,37.25109c-0.8663,7.79674 0,13.86087 1.73261,17.32609c1.73261,3.46522 5.19783,4.33152 9.52935,3.46522c2.59891,-0.8663 5.19783,-1.73261 8.66304,-4.33152c3.46522,-2.59891 8.66304,-6.93044 14.72717,-12.99457c2.59891,-2.59891 6.06413,-6.06413 10.39565,-11.26196c-0.8663,4.33152 -0.8663,9.52935 0,13.86087c0,3.46522 0.8663,6.06413 2.59891,8.66304c2.59891,3.46522 6.93044,4.33152 12.12826,2.59891c4.33152,-1.73261 9.52935,-6.06413 15.59348,-12.99457c5.19783,-6.06413 11.26196,-15.59348 19.0587,-28.58804c-0.8663,3.46522 -0.8663,6.93044 -0.8663,9.52935c0,2.59891 0,6.06413 0,10.39565c0,3.46522 0.8663,6.93044 2.59891,8.66304c1.73261,1.73261 4.33152,3.46522 6.93044,3.46522c2.59891,0 5.19783,-1.73261 9.52935,-4.33152c3.46522,-2.59891 7.79674,-6.06413 12.99457,-10.39565c3.46522,-2.59891 6.06413,-6.06413 8.66304,-8.66304c-1.73261,7.79674 -2.59891,14.72717 -3.46522,21.65761c-0.8663,4.33152 -0.8663,8.66304 -0.8663,12.12826c0,3.46522 0,6.06413 0.8663,8.66304c0.8663,2.59891 2.59891,4.33152 5.19783,4.33152l0.8663,0c2.59891,0 4.33152,-1.73261 5.19783,-5.19783l4.33152,-10.39565c3.46522,-9.52935 8.66304,-19.0587 15.59348,-29.45435c3.46522,-5.19783 6.06413,-9.52935 7.79674,-12.12826c6.06413,-6.93044 12.12826,-11.26196 18.19239,-14.72717l2.59891,-0.8663c0,0 0,0 0,0.8663c0,0 0,0.8663 0,1.73261c0,0.8663 0,3.46522 -0.8663,7.79674c0,2.59891 -0.8663,5.19783 -1.73261,7.79674c-7.79674,3.46522 -14.72717,6.93044 -19.925,10.39565c-5.19783,3.46522 -9.52935,8.66304 -12.12826,13.86087c-2.59891,4.33152 -3.46522,8.66304 -3.46522,12.99457c0,2.59891 0,4.33152 0.8663,6.93044c0.8663,2.59891 2.59891,4.33152 5.19783,6.06413c1.73261,0.8663 2.59891,0.8663 4.33152,0.8663c3.46522,0 7.79674,-2.59891 12.12826,-6.93044c9.52935,-10.39565 16.45978,-22.52391 21.65761,-38.11739c8.66304,-3.46522 15.59348,-6.93044 19.925,-10.39565c0.8663,-0.8663 1.73261,-1.73261 3.46522,-2.59891l0,-0.8663c-1.73261,0.8663 -1.73261,0 -1.73261,0l0,0l0.00002,-0.00003zm-47.64674,40.71631c-3.46522,5.19783 -6.06413,8.66304 -7.79674,9.52935c0,0 -0.8663,0 -0.8663,0.8663c0,0 -0.8663,0.8663 -0.8663,0.8663c-0.8663,0 -1.73261,-1.73261 -1.73261,-3.46522c0,-0.8663 0,-2.59891 0.8663,-4.33152c0.8663,-5.19783 3.46522,-10.39565 8.66304,-15.59348c2.59891,-2.59891 5.19783,-4.33152 6.93044,-5.19783c0.8663,-0.8663 3.46522,-1.73261 6.93044,-3.46522c-2.59891,5.19783 -6.93044,12.12826 -12.12826,20.79131l0,0l-0.00001,0.00001z" fill="#0B487D" stroke="null"/>
  </g>
 </g>

</svg>